<?xml version="1.0" encoding="UTF-8"?>
<svg viewBox="0 0 479.92239 237.58638" xmlns="http://www.w3.org/2000/svg" xmlns:xlink="http://www.w3.org/1999/xlink">
 <defs>
  <linearGradient id="b">
   <stop stop-opacity="0" offset="0"/>
   <stop stop-opacity=".45833" offset="1"/>
  </linearGradient>
  <linearGradient id="a">
   <stop stop-color="#fff" stop-opacity=".76042" offset="0"/>
   <stop stop-color="#fff" stop-opacity="0" offset="1"/>
  </linearGradient>
  <linearGradient id="h" x1="-1.2233" x2="133.08" y1="136.08" y2="122.15" gradientUnits="userSpaceOnUse" xlink:href="#a"/>
  <linearGradient id="g" x1="208.34" x2="328.13" y1="134.75" y2="152.34" gradientUnits="userSpaceOnUse" xlink:href="#b"/>
  <linearGradient id="f" x1="115.22" x2="-3.6654" y1="15.632" y2="28.998" gradientUnits="userSpaceOnUse" xlink:href="#b"/>
  <radialGradient id="c" cx="223.24" cy="1920.3" r="130.62" gradientTransform="matrix(1.5424 -.030276 .020045 .39644 -157.79 -568.92)" gradientUnits="userSpaceOnUse">
   <stop stop-color="#001" offset="0"/>
   <stop stop-color="#001" stop-opacity="0" offset="1"/>
  </radialGradient>
  <radialGradient id="d" cx="179.71" cy="435.02" r="108.18" gradientTransform="matrix(1.149 -.021946 .0045987 .24077 -66.808 -47.721)" gradientUnits="userSpaceOnUse">
   <stop stop-color="#e9fb00" offset="0"/>
   <stop stop-color="#ffb800" offset="1"/>
  </radialGradient>
  <radialGradient id="e" cx="593.88" cy="276.3" r="61.798" gradientTransform="matrix(1.5427 .1719 -.050266 .45111 -460.49 -147.76)" gradientUnits="userSpaceOnUse" xlink:href="#a"/>
 </defs>
 <path d="m441.35 189.41c0.46502 28.638-96.03 50.143-215.51 48.032s-216.7-27.042-217.12-55.679c-0.46502-28.638 96.03-50.143 215.51-48.032s216.7 27.042 217.12 55.679z" fill="url(#c)"/>
 <path d="m342.34 44.039c0 23.532-76.297 42.608-170.41 42.608s-170.41-19.076-170.41-42.608 76.297-42.608 170.41-42.608 170.41 19.076 170.41 42.608z" fill="#ffff96" fill-rule="evenodd" stroke="#000" stroke-linejoin="round" stroke-width="2.8612"/>
 <path d="m1.2588 41.66c2.0915 6.4785 8.4772 27.461 13.81 31.624 65.091 36.55 100.95 8.5151 144.06 11.491l-1-83.564c-41.94 0.53611-71.61 5.0305-99.187 10.2-26.363 7.3715-54.068 14.233-57.683 30.248z" fill="url(#f)" fill-rule="evenodd"/>
 <path d="m332.21 62.486c0.35539 18.607-74.237 33.436-163.03 35.132s-157.65-9.7787-161.51-28.635c-1.8639-9.1165 17.575-19.474 45.759-28.155 30.654-9.4416 68.409-4.9932 114.41-11.377 44.477 3.2795 77.006 2.3059 113.97 10.456 28.96 6.3849 42.486 9.7589 50.402 22.58z" fill="url(#d)" opacity=".94"/>
 <path d="m342.27 43.892c-5.346 23.594-51.709 32.356-84.932 37.58-52.691 8.2844-118.66 6.4956-174.02-0.82578-25.627-3.3891-71.968-11.451-81.837-37.133-0.4457 27.837 1.9366 56.165 7.816 85.267 16.464 56.284 52.562 68.782 81.122 76.852 54.556 13.094 109.11 10.056 163.67 0.47441 40.899-9.7332 70.364-38.245 79.224-72.108" fill="#f00" fill-rule="evenodd" stroke="#000" stroke-width="2.8612"/>
 <path d="m341.91 41.298c3.1355 11.5 5.2699 26.015 13.772 27.508l69.261-2.5014c16.445-0.83016 33.389 0.57163 49.84 9.4841 7.9674 27.974 1.6096 42.987-5.0941 59.754-16.759 4.9321-35.015 2.9838-51.779-0.85184l-66.136-17.436c-8.6433-1.4638-17.069 9.6694-19.55 20.616" fill="#a10000" fill-rule="evenodd" stroke="#000" stroke-linejoin="round" stroke-width="2.8612"/>
 <path d="m148.6 104.7v32.891c-15.864 0.37105-19.238-0.75259-35.674-2.0241v31.373c20.577 2.3402 24.712 2.3407 35.674 2.2771l0.50602 29.602c11.763 1.5628 22.733 1.0592 35.168 0l-0.25301-29.602c16.172 0.04344 25.403-0.13308 36.433-1.518l0.253-31.626c-11.385 1.8836-19.988 1.0679-36.18 1.518l-0.25301-33.144c-9.5556 0.45017-17.539 1.1228-35.674 0.25301z" fill="#fff" fill-rule="evenodd"/>
 <path d="m3.0073 50.275c0.11711 32.827 3.2224 55.696 8.2074 78.84 8.7731 30.098 24.585 59.219 72.374 73.12 30.347 8.0505 57.669 10.052 84.063 10.197l-2.4871-124.1c-35.066-0.2619-69.805-3.4687-104.21-9.6996-22.84-4.987-44.889-10.976-57.949-28.353z" fill="url(#h)" fill-rule="evenodd"/>
 <path d="m340.97 50.739c-11.868 12.796-24.837 17.836-38.698 22.708-43.809 11.121-86.083 15.246-127.91 15.128l0.74612 123.86c25.073 1.6483 52.952-3.1284 79.968-7.9586 41.828-11.08 66.099-35.639 77.421-69.319" fill="url(#g)" fill-rule="evenodd"/>
 <path d="m355.53 70.767 76.147-3.2065c16.904-0.32556 29.387 3.3194 41.86 8.7706 4.3949 19.35 2.7584 25.661 2.2685 29.424-28.782 1.063-55.618 1.7262-119.91-15.467-4.6596-7.3053-3.641-13.612-0.36224-19.521z" fill="url(#e)" fill-rule="evenodd"/>
</svg>
